<mxfile host="app.diagrams.net" modified="2023-06-01T13:44:28.475Z" agent="Mozilla/5.0 (Windows NT 10.0; Win64; x64) AppleWebKit/537.36 (KHTML, like Gecko) Chrome/113.0.0.0 Safari/537.36" etag="Da3EWdNDdRL0km9W2Vse" version="21.3.6" type="github">
  <diagram id="C5RBs43oDa-KdzZeNtuy" name="Page-1">
    <mxGraphModel dx="1571" dy="683" grid="1" gridSize="10" guides="1" tooltips="1" connect="1" arrows="1" fold="1" page="1" pageScale="1" pageWidth="413" pageHeight="583" math="0" shadow="0">
      <root>
        <mxCell id="WIyWlLk6GJQsqaUBKTNV-0" />
        <mxCell id="WIyWlLk6GJQsqaUBKTNV-1" parent="WIyWlLk6GJQsqaUBKTNV-0" />
        <mxCell id="MTuep080PwpkamI9-8A8-1" value="Inicio" style="strokeWidth=2;html=1;shape=mxgraph.flowchart.terminator;whiteSpace=wrap;" vertex="1" parent="WIyWlLk6GJQsqaUBKTNV-1">
          <mxGeometry x="200" y="30" width="100" height="60" as="geometry" />
        </mxCell>
        <mxCell id="MTuep080PwpkamI9-8A8-2" value="saldo" style="shape=manualInput;whiteSpace=wrap;html=1;" vertex="1" parent="WIyWlLk6GJQsqaUBKTNV-1">
          <mxGeometry x="210" y="140" width="80" height="80" as="geometry" />
        </mxCell>
        <mxCell id="MTuep080PwpkamI9-8A8-3" value="" style="endArrow=classic;html=1;rounded=0;" edge="1" parent="WIyWlLk6GJQsqaUBKTNV-1">
          <mxGeometry width="50" height="50" relative="1" as="geometry">
            <mxPoint x="249.5" y="100" as="sourcePoint" />
            <mxPoint x="249.5" y="150" as="targetPoint" />
            <Array as="points">
              <mxPoint x="249.5" y="110" />
            </Array>
          </mxGeometry>
        </mxCell>
        <mxCell id="MTuep080PwpkamI9-8A8-4" value="Encerrar = &#39;n&#39;" style="rounded=1;whiteSpace=wrap;html=1;" vertex="1" parent="WIyWlLk6GJQsqaUBKTNV-1">
          <mxGeometry x="190" y="270" width="120" height="60" as="geometry" />
        </mxCell>
        <mxCell id="dmb3ePRvVSrcgI4gKU7C-19" style="edgeStyle=orthogonalEdgeStyle;rounded=0;orthogonalLoop=1;jettySize=auto;html=1;" edge="1" parent="WIyWlLk6GJQsqaUBKTNV-1" source="MTuep080PwpkamI9-8A8-5">
          <mxGeometry relative="1" as="geometry">
            <mxPoint x="340" y="1600" as="targetPoint" />
            <Array as="points">
              <mxPoint x="740" y="440" />
              <mxPoint x="740" y="1600" />
            </Array>
          </mxGeometry>
        </mxCell>
        <mxCell id="MTuep080PwpkamI9-8A8-5" value="Encerrar = &#39;n&#39;" style="rhombus;whiteSpace=wrap;html=1;" vertex="1" parent="WIyWlLk6GJQsqaUBKTNV-1">
          <mxGeometry x="190" y="380" width="120" height="120" as="geometry" />
        </mxCell>
        <mxCell id="MTuep080PwpkamI9-8A8-6" value="Saldo inicial: &#39;+ saldo" style="shape=display;whiteSpace=wrap;html=1;" vertex="1" parent="WIyWlLk6GJQsqaUBKTNV-1">
          <mxGeometry x="359" y="135" width="110" height="90" as="geometry" />
        </mxCell>
        <mxCell id="MTuep080PwpkamI9-8A8-7" value="" style="endArrow=classic;html=1;rounded=0;" edge="1" parent="WIyWlLk6GJQsqaUBKTNV-1">
          <mxGeometry width="50" height="50" relative="1" as="geometry">
            <mxPoint x="299" y="179.5" as="sourcePoint" />
            <mxPoint x="350" y="180" as="targetPoint" />
            <Array as="points">
              <mxPoint x="329" y="179.5" />
            </Array>
          </mxGeometry>
        </mxCell>
        <mxCell id="MTuep080PwpkamI9-8A8-9" value="" style="edgeStyle=segmentEdgeStyle;endArrow=classic;html=1;curved=0;rounded=0;endSize=8;startSize=8;" edge="1" parent="WIyWlLk6GJQsqaUBKTNV-1">
          <mxGeometry width="50" height="50" relative="1" as="geometry">
            <mxPoint x="414" y="250" as="sourcePoint" />
            <mxPoint x="340" y="300" as="targetPoint" />
            <Array as="points">
              <mxPoint x="414" y="300" />
            </Array>
          </mxGeometry>
        </mxCell>
        <mxCell id="MTuep080PwpkamI9-8A8-10" value="" style="endArrow=classic;html=1;rounded=0;" edge="1" parent="WIyWlLk6GJQsqaUBKTNV-1">
          <mxGeometry width="50" height="50" relative="1" as="geometry">
            <mxPoint x="250" y="340" as="sourcePoint" />
            <mxPoint x="250" y="370" as="targetPoint" />
          </mxGeometry>
        </mxCell>
        <mxCell id="MTuep080PwpkamI9-8A8-11" value="Tipo de entrada" style="shape=manualInput;whiteSpace=wrap;html=1;" vertex="1" parent="WIyWlLk6GJQsqaUBKTNV-1">
          <mxGeometry x="210" y="560" width="110" height="80" as="geometry" />
        </mxCell>
        <mxCell id="MTuep080PwpkamI9-8A8-12" value="Quantidade" style="shape=manualInput;whiteSpace=wrap;html=1;" vertex="1" parent="WIyWlLk6GJQsqaUBKTNV-1">
          <mxGeometry x="210" y="680" width="110" height="80" as="geometry" />
        </mxCell>
        <mxCell id="MTuep080PwpkamI9-8A8-13" value="" style="endArrow=classic;html=1;rounded=0;" edge="1" parent="WIyWlLk6GJQsqaUBKTNV-1">
          <mxGeometry width="50" height="50" relative="1" as="geometry">
            <mxPoint x="250" y="520" as="sourcePoint" />
            <mxPoint x="249.57999999999998" y="560" as="targetPoint" />
          </mxGeometry>
        </mxCell>
        <mxCell id="MTuep080PwpkamI9-8A8-14" value="" style="endArrow=classic;html=1;rounded=0;" edge="1" parent="WIyWlLk6GJQsqaUBKTNV-1">
          <mxGeometry width="50" height="50" relative="1" as="geometry">
            <mxPoint x="265" y="650" as="sourcePoint" />
            <mxPoint x="264.58" y="690" as="targetPoint" />
          </mxGeometry>
        </mxCell>
        <mxCell id="MTuep080PwpkamI9-8A8-15" value="Tipo de entrada = 1" style="rhombus;whiteSpace=wrap;html=1;" vertex="1" parent="WIyWlLk6GJQsqaUBKTNV-1">
          <mxGeometry x="205" y="820" width="120" height="120" as="geometry" />
        </mxCell>
        <mxCell id="MTuep080PwpkamI9-8A8-16" value="" style="endArrow=classic;html=1;rounded=0;" edge="1" parent="WIyWlLk6GJQsqaUBKTNV-1">
          <mxGeometry width="50" height="50" relative="1" as="geometry">
            <mxPoint x="265" y="770" as="sourcePoint" />
            <mxPoint x="264.58" y="810" as="targetPoint" />
          </mxGeometry>
        </mxCell>
        <mxCell id="MTuep080PwpkamI9-8A8-17" value="" style="endArrow=classic;html=1;rounded=0;" edge="1" parent="WIyWlLk6GJQsqaUBKTNV-1">
          <mxGeometry width="50" height="50" relative="1" as="geometry">
            <mxPoint x="340" y="880" as="sourcePoint" />
            <mxPoint x="380.58" y="879.58" as="targetPoint" />
          </mxGeometry>
        </mxCell>
        <mxCell id="MTuep080PwpkamI9-8A8-18" value="Saldo = saldo + quantidade" style="rounded=1;whiteSpace=wrap;html=1;" vertex="1" parent="WIyWlLk6GJQsqaUBKTNV-1">
          <mxGeometry x="390" y="850" width="120" height="60" as="geometry" />
        </mxCell>
        <mxCell id="MTuep080PwpkamI9-8A8-19" value="&quot;Entrada: &quot; + quantidade" style="shape=display;whiteSpace=wrap;html=1;" vertex="1" parent="WIyWlLk6GJQsqaUBKTNV-1">
          <mxGeometry x="570" y="835" width="110" height="90" as="geometry" />
        </mxCell>
        <mxCell id="MTuep080PwpkamI9-8A8-20" value="" style="endArrow=classic;html=1;rounded=0;" edge="1" parent="WIyWlLk6GJQsqaUBKTNV-1">
          <mxGeometry width="50" height="50" relative="1" as="geometry">
            <mxPoint x="530" y="879.5" as="sourcePoint" />
            <mxPoint x="560.5799999999999" y="879.5" as="targetPoint" />
          </mxGeometry>
        </mxCell>
        <mxCell id="MTuep080PwpkamI9-8A8-21" value="" style="endArrow=classic;html=1;rounded=0;" edge="1" parent="WIyWlLk6GJQsqaUBKTNV-1">
          <mxGeometry width="50" height="50" relative="1" as="geometry">
            <mxPoint x="630" y="940" as="sourcePoint" />
            <mxPoint x="325" y="985" as="targetPoint" />
            <Array as="points">
              <mxPoint x="630" y="985" />
              <mxPoint x="565" y="985" />
            </Array>
          </mxGeometry>
        </mxCell>
        <mxCell id="MTuep080PwpkamI9-8A8-22" value="" style="endArrow=classic;html=1;rounded=0;" edge="1" parent="WIyWlLk6GJQsqaUBKTNV-1">
          <mxGeometry width="50" height="50" relative="1" as="geometry">
            <mxPoint x="264.92" y="950" as="sourcePoint" />
            <mxPoint x="264.5" y="990" as="targetPoint" />
          </mxGeometry>
        </mxCell>
        <mxCell id="dmb3ePRvVSrcgI4gKU7C-11" style="edgeStyle=orthogonalEdgeStyle;rounded=0;orthogonalLoop=1;jettySize=auto;html=1;entryX=0.506;entryY=-0.079;entryDx=0;entryDy=0;entryPerimeter=0;" edge="1" parent="WIyWlLk6GJQsqaUBKTNV-1" source="MTuep080PwpkamI9-8A8-23" target="dmb3ePRvVSrcgI4gKU7C-10">
          <mxGeometry relative="1" as="geometry" />
        </mxCell>
        <mxCell id="MTuep080PwpkamI9-8A8-23" value="Tipo de entrada = 2" style="rhombus;whiteSpace=wrap;html=1;" vertex="1" parent="WIyWlLk6GJQsqaUBKTNV-1">
          <mxGeometry x="205" y="1000" width="120" height="120" as="geometry" />
        </mxCell>
        <mxCell id="dmb3ePRvVSrcgI4gKU7C-0" value="" style="endArrow=classic;html=1;rounded=0;" edge="1" parent="WIyWlLk6GJQsqaUBKTNV-1">
          <mxGeometry width="50" height="50" relative="1" as="geometry">
            <mxPoint x="340" y="1059.71" as="sourcePoint" />
            <mxPoint x="380.58" y="1059.29" as="targetPoint" />
          </mxGeometry>
        </mxCell>
        <mxCell id="dmb3ePRvVSrcgI4gKU7C-9" value="" style="edgeStyle=orthogonalEdgeStyle;rounded=0;orthogonalLoop=1;jettySize=auto;html=1;" edge="1" parent="WIyWlLk6GJQsqaUBKTNV-1" source="dmb3ePRvVSrcgI4gKU7C-1" target="dmb3ePRvVSrcgI4gKU7C-4">
          <mxGeometry relative="1" as="geometry" />
        </mxCell>
        <mxCell id="dmb3ePRvVSrcgI4gKU7C-1" value="Saldo &amp;gt; = quantidade" style="rhombus;whiteSpace=wrap;html=1;" vertex="1" parent="WIyWlLk6GJQsqaUBKTNV-1">
          <mxGeometry x="385" y="995" width="130" height="130" as="geometry" />
        </mxCell>
        <mxCell id="dmb3ePRvVSrcgI4gKU7C-2" value="" style="endArrow=classic;html=1;rounded=0;" edge="1" parent="WIyWlLk6GJQsqaUBKTNV-1">
          <mxGeometry width="50" height="50" relative="1" as="geometry">
            <mxPoint x="529.42" y="1059.71" as="sourcePoint" />
            <mxPoint x="570" y="1059.29" as="targetPoint" />
          </mxGeometry>
        </mxCell>
        <mxCell id="dmb3ePRvVSrcgI4gKU7C-8" value="" style="edgeStyle=orthogonalEdgeStyle;rounded=0;orthogonalLoop=1;jettySize=auto;html=1;" edge="1" parent="WIyWlLk6GJQsqaUBKTNV-1" source="dmb3ePRvVSrcgI4gKU7C-3" target="dmb3ePRvVSrcgI4gKU7C-5">
          <mxGeometry relative="1" as="geometry" />
        </mxCell>
        <mxCell id="dmb3ePRvVSrcgI4gKU7C-3" value="Saldo = saldo - quantidade" style="rounded=1;whiteSpace=wrap;html=1;" vertex="1" parent="WIyWlLk6GJQsqaUBKTNV-1">
          <mxGeometry x="580" y="1030" width="120" height="60" as="geometry" />
        </mxCell>
        <mxCell id="dmb3ePRvVSrcgI4gKU7C-12" style="edgeStyle=orthogonalEdgeStyle;rounded=0;orthogonalLoop=1;jettySize=auto;html=1;" edge="1" parent="WIyWlLk6GJQsqaUBKTNV-1" source="dmb3ePRvVSrcgI4gKU7C-4">
          <mxGeometry relative="1" as="geometry">
            <mxPoint x="280" y="1195.9999999999998" as="targetPoint" />
          </mxGeometry>
        </mxCell>
        <mxCell id="dmb3ePRvVSrcgI4gKU7C-4" value="&quot;Saldo insuficiente&quot;" style="shape=display;whiteSpace=wrap;html=1;" vertex="1" parent="WIyWlLk6GJQsqaUBKTNV-1">
          <mxGeometry x="395" y="1151" width="110" height="90" as="geometry" />
        </mxCell>
        <mxCell id="dmb3ePRvVSrcgI4gKU7C-13" style="edgeStyle=orthogonalEdgeStyle;rounded=0;orthogonalLoop=1;jettySize=auto;html=1;" edge="1" parent="WIyWlLk6GJQsqaUBKTNV-1" source="dmb3ePRvVSrcgI4gKU7C-5">
          <mxGeometry relative="1" as="geometry">
            <mxPoint x="280" y="1250" as="targetPoint" />
            <Array as="points">
              <mxPoint x="640" y="1250" />
            </Array>
          </mxGeometry>
        </mxCell>
        <mxCell id="dmb3ePRvVSrcgI4gKU7C-5" value="&quot;saida: &quot; + quantidade" style="shape=display;whiteSpace=wrap;html=1;" vertex="1" parent="WIyWlLk6GJQsqaUBKTNV-1">
          <mxGeometry x="585" y="1151" width="110" height="90" as="geometry" />
        </mxCell>
        <mxCell id="dmb3ePRvVSrcgI4gKU7C-15" value="" style="edgeStyle=orthogonalEdgeStyle;rounded=0;orthogonalLoop=1;jettySize=auto;html=1;" edge="1" parent="WIyWlLk6GJQsqaUBKTNV-1" source="dmb3ePRvVSrcgI4gKU7C-10" target="dmb3ePRvVSrcgI4gKU7C-14">
          <mxGeometry relative="1" as="geometry" />
        </mxCell>
        <mxCell id="dmb3ePRvVSrcgI4gKU7C-10" value="Saldo" style="shape=display;whiteSpace=wrap;html=1;" vertex="1" parent="WIyWlLk6GJQsqaUBKTNV-1">
          <mxGeometry x="210" y="1270" width="110" height="90" as="geometry" />
        </mxCell>
        <mxCell id="dmb3ePRvVSrcgI4gKU7C-17" style="edgeStyle=orthogonalEdgeStyle;rounded=0;orthogonalLoop=1;jettySize=auto;html=1;" edge="1" parent="WIyWlLk6GJQsqaUBKTNV-1" source="dmb3ePRvVSrcgI4gKU7C-14">
          <mxGeometry relative="1" as="geometry">
            <mxPoint x="170" y="440" as="targetPoint" />
            <Array as="points">
              <mxPoint x="120" y="1460" />
            </Array>
          </mxGeometry>
        </mxCell>
        <mxCell id="dmb3ePRvVSrcgI4gKU7C-14" value="Encerrar ? (S/N)" style="shape=manualInput;whiteSpace=wrap;html=1;" vertex="1" parent="WIyWlLk6GJQsqaUBKTNV-1">
          <mxGeometry x="210" y="1420" width="110" height="80" as="geometry" />
        </mxCell>
        <mxCell id="dmb3ePRvVSrcgI4gKU7C-21" value="" style="edgeStyle=orthogonalEdgeStyle;rounded=0;orthogonalLoop=1;jettySize=auto;html=1;" edge="1" parent="WIyWlLk6GJQsqaUBKTNV-1" source="dmb3ePRvVSrcgI4gKU7C-16" target="dmb3ePRvVSrcgI4gKU7C-20">
          <mxGeometry relative="1" as="geometry" />
        </mxCell>
        <mxCell id="dmb3ePRvVSrcgI4gKU7C-16" value="&quot;sistema encerrado&quot;" style="shape=display;whiteSpace=wrap;html=1;" vertex="1" parent="WIyWlLk6GJQsqaUBKTNV-1">
          <mxGeometry x="210" y="1540" width="110" height="90" as="geometry" />
        </mxCell>
        <mxCell id="dmb3ePRvVSrcgI4gKU7C-20" value="Fim" style="strokeWidth=2;html=1;shape=mxgraph.flowchart.terminator;whiteSpace=wrap;" vertex="1" parent="WIyWlLk6GJQsqaUBKTNV-1">
          <mxGeometry x="215" y="1680" width="100" height="60" as="geometry" />
        </mxCell>
        <mxCell id="dmb3ePRvVSrcgI4gKU7C-22" value="&lt;b style=&quot;font-size: 17px;&quot;&gt;F&lt;/b&gt;" style="text;html=1;align=center;verticalAlign=middle;resizable=0;points=[];autosize=1;strokeColor=none;fillColor=none;" vertex="1" parent="WIyWlLk6GJQsqaUBKTNV-1">
          <mxGeometry x="475" y="408" width="30" height="30" as="geometry" />
        </mxCell>
        <mxCell id="dmb3ePRvVSrcgI4gKU7C-23" value="&lt;font style=&quot;font-size: 16px;&quot;&gt;&lt;b&gt;V&lt;/b&gt;&lt;/font&gt;" style="text;html=1;align=center;verticalAlign=middle;resizable=0;points=[];autosize=1;strokeColor=none;fillColor=none;" vertex="1" parent="WIyWlLk6GJQsqaUBKTNV-1">
          <mxGeometry x="275" y="508" width="30" height="30" as="geometry" />
        </mxCell>
        <mxCell id="dmb3ePRvVSrcgI4gKU7C-24" value="&lt;font style=&quot;font-size: 16px;&quot;&gt;&lt;b&gt;V&lt;/b&gt;&lt;/font&gt;" style="text;html=1;align=center;verticalAlign=middle;resizable=0;points=[];autosize=1;strokeColor=none;fillColor=none;" vertex="1" parent="WIyWlLk6GJQsqaUBKTNV-1">
          <mxGeometry x="335" y="828" width="30" height="30" as="geometry" />
        </mxCell>
        <mxCell id="dmb3ePRvVSrcgI4gKU7C-25" value="&lt;font style=&quot;font-size: 16px;&quot;&gt;&lt;b&gt;F&lt;/b&gt;&lt;/font&gt;" style="text;html=1;align=center;verticalAlign=middle;resizable=0;points=[];autosize=1;strokeColor=none;fillColor=none;" vertex="1" parent="WIyWlLk6GJQsqaUBKTNV-1">
          <mxGeometry x="205" y="958" width="30" height="30" as="geometry" />
        </mxCell>
        <mxCell id="dmb3ePRvVSrcgI4gKU7C-26" value="&lt;font style=&quot;font-size: 16px;&quot;&gt;&lt;b&gt;V&lt;/b&gt;&lt;/font&gt;" style="text;html=1;align=center;verticalAlign=middle;resizable=0;points=[];autosize=1;strokeColor=none;fillColor=none;" vertex="1" parent="WIyWlLk6GJQsqaUBKTNV-1">
          <mxGeometry x="345" y="1008" width="30" height="30" as="geometry" />
        </mxCell>
        <mxCell id="dmb3ePRvVSrcgI4gKU7C-27" value="&lt;font style=&quot;font-size: 16px;&quot;&gt;&lt;b&gt;V&lt;/b&gt;&lt;/font&gt;" style="text;html=1;align=center;verticalAlign=middle;resizable=0;points=[];autosize=1;strokeColor=none;fillColor=none;" vertex="1" parent="WIyWlLk6GJQsqaUBKTNV-1">
          <mxGeometry x="530" y="1008" width="30" height="30" as="geometry" />
        </mxCell>
        <mxCell id="dmb3ePRvVSrcgI4gKU7C-28" value="&lt;font style=&quot;font-size: 16px;&quot;&gt;&lt;b&gt;F&lt;/b&gt;&lt;/font&gt;" style="text;html=1;align=center;verticalAlign=middle;resizable=0;points=[];autosize=1;strokeColor=none;fillColor=none;" vertex="1" parent="WIyWlLk6GJQsqaUBKTNV-1">
          <mxGeometry x="399" y="1110" width="30" height="30" as="geometry" />
        </mxCell>
        <mxCell id="dmb3ePRvVSrcgI4gKU7C-29" value="&lt;font style=&quot;font-size: 16px;&quot;&gt;&lt;b&gt;F&lt;/b&gt;&lt;/font&gt;" style="text;html=1;align=center;verticalAlign=middle;resizable=0;points=[];autosize=1;strokeColor=none;fillColor=none;" vertex="1" parent="WIyWlLk6GJQsqaUBKTNV-1">
          <mxGeometry x="191" y="1136" width="30" height="30" as="geometry" />
        </mxCell>
      </root>
    </mxGraphModel>
  </diagram>
</mxfile>
